# xmcd
#
# Track frame offsets:
#	150
#	14287
#	28594
#	43790
#	57431
#	71174
#	85095
#	99554
#	114528
#	128519
#	142752
#	156881
#	170317
#	182251
#	197490
#	211379
#	226879
#	241538
#	256146
#	271432
#	286758
#	299189
#	312084
#
# Disc length: 4332 seconds
#
# Revision: 1
# Processed by: cddbd v1.5.1PL0 Copyright (c) Steve Scherf et al.
# Submitted via: audiograbber 1.83.01
#
DISCID=3910ea17
DTITLE=Vernon Dalhart - The Wreck of the Ol '97 And Other Early Country Hits
DYEAR=1900
DGENRE=
TTITLE0=Wreck of the Old '97
TTITLE1=Prisoner's Song
TTITLE2=Molly Darling
TTITLE3=The Gypsy's Warning
TTITLE4=Get Away Old Man
TTITLE5=Pretty Little Dear
TTITLE6=The Mississippi Flood
TTITLE7=Naomi Wise
TTITLE8=Death of Floyd Collins
TTITLE9=In 1992
TTITLE10=Where Is My Wondering Boy
TTITLE11=The West Plains Explosion
TTITLE12=Little Marian Parker
TTITLE13=Eleven More Months
TTITLE14=My Mother's Old Red Shawl
TTITLE15=Letter Edged In Black
TTITLE16=Zeb Turner's Gal
TTITLE17=Calamity Jane
TTITLE18=The Jealous Lover
TTITLE19=Jesse James
TTITLE20=Billy The Kid
TTITLE21=Gonna Have A Big Time Tonight
TTITLE22=Lavender Cowboy
EXTD=
EXTT0=
EXTT1=
EXTT2=
EXTT3=
EXTT4=
EXTT5=
EXTT6=
EXTT7=
EXTT8=
EXTT9=
EXTT10=
EXTT11=
EXTT12=
EXTT13=
EXTT14=
EXTT15=
EXTT16=
EXTT17=
EXTT18=
EXTT19=
EXTT20=
EXTT21=
EXTT22=
PLAYORDER=
